<?xml version="1.0"?>
<svg xmlns="http://www.w3.org/2000/svg" height="512px" viewBox="0 0 456 456" width="512px" class=""><g><g><g fill="#263238"><path d="m4 232c-2.207031 0-4-1.792969-4-4 0-125.71875 102.28125-228 228-228 2.207031 0 4 1.792969 4 4s-1.792969 4-4 4c-121.3125 0-220 98.6875-220 220 0 2.207031-1.792969 4-4 4zm0 0" data-original="#263238" class=""/><path d="m252 8h-8c-2.207031 0-4-1.792969-4-4s1.792969-4 4-4h8c2.207031 0 4 1.792969 4 4s-1.792969 4-4 4zm0 0" data-original="#263238" class=""/><path d="m228 456c-2.207031 0-4-1.792969-4-4s1.792969-4 4-4c121.304688 0 220-98.6875 220-220 0-2.207031 1.792969-4 4-4s4 1.792969 4 4c0 125.71875-102.28125 228-228 228zm0 0" data-original="#263238" class=""/><path d="m212 456h-8c-2.207031 0-4-1.792969-4-4s1.792969-4 4-4h8c2.207031 0 4 1.792969 4 4s-1.792969 4-4 4zm0 0" data-original="#263238" class=""/><path d="m228 424c-108.070312 0-196-87.929688-196-196s87.929688-196 196-196c108.078125 0 196 87.929688 196 196s-87.921875 196-196 196zm0-384c-103.664062 0-188 84.335938-188 188s84.335938 188 188 188 188-84.335938 188-188-84.335938-188-188-188zm0 0" data-original="#263238" class=""/></g><path d="m228 84c-79.527344 0-144 64.472656-144 144s64.472656 144 144 144 144-64.472656 144-144-64.472656-144-144-144zm0 0" fill="#4db6ac" data-original="#83E1E5" class="" style="fill:#83E1E5" data-old_color="#4db6ac"/><path d="m228 376c-81.609375 0-148-66.390625-148-148s66.390625-148 148-148 148 66.390625 148 148-66.390625 148-148 148zm0-288c-77.191406 0-140 62.808594-140 140s62.808594 140 140 140 140-62.808594 140-140-62.808594-140-140-140zm0 0" fill="#263238" data-original="#263238" class=""/><path d="m396 24h-32c-2.207031 0-4-1.792969-4-4s1.792969-4 4-4h32c2.207031 0 4 1.792969 4 4s-1.792969 4-4 4zm0 0" fill="#263238" data-original="#263238" class=""/><path d="m380 40c-2.207031 0-4-1.792969-4-4v-32c0-2.207031 1.792969-4 4-4s4 1.792969 4 4v32c0 2.207031-1.792969 4-4 4zm0 0" fill="#263238" data-original="#263238" class=""/><path d="m452 76h-32c-2.207031 0-4-1.792969-4-4s1.792969-4 4-4h32c2.207031 0 4 1.792969 4 4s-1.792969 4-4 4zm0 0" fill="#263238" data-original="#263238" class=""/><path d="m436 92c-2.207031 0-4-1.792969-4-4v-32c0-2.207031 1.792969-4 4-4s4 1.792969 4 4v32c0 2.207031-1.792969 4-4 4zm0 0" fill="#263238" data-original="#263238" class=""/><path d="m203.960938 290.910156c-3.074219 0-6.144532-1.167968-8.488282-3.511718l-53.746094-53.734376c-4.6875-4.679687-4.6875-12.28125 0-16.96875s12.28125-4.6875 16.96875 0l45.257813 45.257813 93.335937-93.335937c4.6875-4.6875 12.277344-4.6875 16.96875 0 4.6875 4.679687 4.6875 12.285156 0 16.96875l-101.808593 101.804687c-2.34375 2.34375-5.417969 3.519531-8.488281 3.519531zm0 0" fill="#fff" data-original="#FFF" class="active-path"/><path d="m203.960938 294.910156c-4.273438 0-8.289063-1.664062-11.3125-4.6875l-53.746094-53.734375c-3.023438-3.015625-4.6875-7.03125-4.6875-11.3125 0-4.273437 1.664062-8.289062 4.6875-11.3125 6.050781-6.046875 16.578125-6.046875 22.625 0l42.433594 42.425781 90.503906-90.503906c6.046875-6.050781 16.574218-6.050781 22.625 0 3.023437 3.015625 4.6875 7.039063 4.6875 11.3125 0 4.269532-1.664063 8.292969-4.6875 11.308594l-101.816406 101.816406c-3.027344 3.023438-7.042969 4.6875-11.3125 4.6875zm-53.746094-77.742187c-2.136719 0-4.144532.832031-5.65625 2.34375-1.511719 1.511719-2.34375 3.519531-2.34375 5.65625s.832031 4.144531 2.34375 5.65625l53.746094 53.734375c3.023437 3.027344 8.289062 3.027344 11.3125 0l101.824218-101.816406c1.503906-1.511719 2.34375-3.519532 2.34375-5.652344 0-2.136719-.832031-4.144532-2.34375-5.65625-3.128906-3.121094-8.183594-3.121094-11.3125 0l-93.335937 93.335937c-1.5625 1.558594-4.097657 1.558594-5.65625 0l-45.257813-45.257812c-1.519531-1.511719-3.527344-2.34375-5.664062-2.34375zm0 0" fill="#263238" data-original="#263238" class=""/></g></g> </svg>
