<?xml version="1.0"?>
<svg xmlns="http://www.w3.org/2000/svg" id="Layer_4" enable-background="new 0 0 64 64" height="512px" viewBox="0 0 64 64" width="512px" class="hovered-paths"><g><g><g><path d="m32 18-12.12 7v14l12.12 7 12.12-7v-14z" fill="#ffcaa6" data-original="#83E1E5" class="hovered-path" style="fill:#83E1E5" data-old_color="#ffcaa6"/><path d="m44.12 25v14l-12.12-7v-14z" fill="#f28c53" data-original="#83E1E5" class="hovered-path" style="fill:#83E1E5" data-old_color="#f28c53"/><path d="m44.12 39-12.12 7-12.12-7 12.12-7z" fill="#ffb07b" data-original="#83E1E5" class="hovered-path" style="fill:#83E1E5" data-old_color="#ffb07b"/><path d="m14 10v-4l-8 8 8 8v-4h10v-8z" fill="#ee3a43" data-original="#FFFFFF" class="" style="fill:#FFFFFF" data-old_color="#ee3a43"/><path d="m58 50-8-8v4h-10v8h10v4z" fill="#6ce3ff" data-original="#FFFFFF" class="" style="fill:#FFFFFF" data-old_color="#6ce3ff"/><path d="m32 15h-14c-.553 0-1-.448-1-1s.447-1 1-1h14c.553 0 1 .448 1 1s-.447 1-1 1z" data-original="#000000" class="active-path" style="fill:#000000"/><path d="m14 23c-.26 0-.516-.102-.707-.293l-8-8c-.391-.391-.391-1.023 0-1.414l8-8c.286-.287.717-.371 1.09-.217.374.155.617.52.617.924v3h25c.553 0 1 .448 1 1s-.447 1-1 1h-26c-.553 0-1-.448-1-1v-1.586l-5.586 5.586 5.586 5.586v-1.586c0-.552.447-1 1-1h10c.553 0 1 .448 1 1s-.447 1-1 1h-9v3c0 .404-.243.769-.617.924-.124.051-.254.076-.383.076z" data-original="#000000" class="active-path" style="fill:#000000"/><path d="m50 59c-.129 0-.259-.025-.383-.076-.374-.155-.617-.52-.617-.924v-3h-25c-.553 0-1-.448-1-1s.447-1 1-1h26c.553 0 1 .448 1 1v1.586l5.586-5.586-5.586-5.586v1.586c0 .552-.447 1-1 1h-10c-.553 0-1-.448-1-1s.447-1 1-1h9v-3c0-.404.243-.769.617-.924s.804-.069 1.09.217l8 8c.391.391.391 1.023 0 1.414l-8 8c-.191.191-.447.293-.707.293z" data-original="#000000" class="active-path" style="fill:#000000"/><path d="m46 51h-14c-.553 0-1-.448-1-1s.447-1 1-1h14c.553 0 1 .448 1 1s-.447 1-1 1z" data-original="#000000" class="active-path" style="fill:#000000"/><path d="m39.457 37.306c-.17 0-.342-.043-.499-.134l-7.458-4.306c-.479-.276-.643-.888-.366-1.366.275-.479.889-.643 1.366-.366l7.458 4.306c.479.276.643.888.366 1.366-.185.32-.521.5-.867.5z" data-original="#000000" class="active-path" style="fill:#000000"/><path d="m19.877 40c-.346 0-.682-.179-.867-.5-.276-.479-.112-1.09.366-1.366l12.124-7c.477-.277 1.09-.113 1.366.366s.112 1.09-.366 1.366l-12.124 7c-.157.091-.329.134-.499.134z" data-original="#000000" class="active-path" style="fill:#000000"/><path d="m32 33c-.553 0-1-.448-1-1v-14c0-.552.447-1 1-1s1 .448 1 1v14c0 .552-.447 1-1 1z" data-original="#000000" class="active-path" style="fill:#000000"/><path d="m32 47c-.173 0-.346-.044-.5-.134l-12.124-7c-.31-.179-.5-.509-.5-.866v-14c0-.357.19-.688.5-.866l12.124-7c.309-.179.691-.179 1 0l12.124 7c.31.179.5.509.5.866v14c0 .357-.19.688-.5.866l-12.124 7c-.154.09-.327.134-.5.134zm-11.124-8.577 11.124 6.422 11.124-6.422v-12.846l-11.124-6.422-11.124 6.422z" data-original="#000000" class="active-path" style="fill:#000000"/></g></g></g> </svg>
