<?xml version="1.0"?>
<svg xmlns="http://www.w3.org/2000/svg" xmlns:xlink="http://www.w3.org/1999/xlink" version="1.1" id="Capa_1" x="0px" y="0px" viewBox="0 0 512 512" style="enable-background:new 0 0 512 512;" xml:space="preserve" width="512px" height="512px" class=""><g><g><g><path style="fill:#83E1E5" d="M282,236v-12c0-11.048,8.952-20,20-20h184c11.048,0,20,8.952,20,20v264c0,11.048-8.952,20-20,20H302  c-11.048,0-20-8.952-20-20V308" data-original="#83E1E5" class="" data-old_color="#FFCA28"/><g>
	<path style="fill:#000000" d="M486,200H302c-13.232,0-24,10.768-24,24v12c0,2.208,1.792,4,4,4s4-1.792,4-4v-12   c0-8.824,7.176-16,16-16h184c8.824,0,16,7.176,16,16v264c0,8.824-7.176,16-16,16H302c-8.824,0-16-7.176-16-16V308   c0-2.208-1.792-4-4-4s-4,1.792-4,4v180c0,13.232,10.768,24,24,24h184c13.232,0,24-10.768,24-24V224   C510,210.768,499.232,200,486,200z" data-original="#000000" class="" data-old_color="#37474F"/>
	<path style="fill:#000000" d="M282,256c-2.208,0-4,1.792-4,4v24c0,2.208,1.792,4,4,4s4-1.792,4-4v-24   C286,257.792,284.208,256,282,256z" data-original="#000000" class="" data-old_color="#37474F"/>
</g><path style="fill:#FFFFFF;" d="M466,240H322c-4.416,0-8,3.584-8,8v32c0,4.416,3.584,8,8,8h144c4.416,0,8-3.584,8-8v-32  C474,243.584,470.416,240,466,240z" data-original="#FFFFFF" class="active-path"/><path style="fill:#000000" d="M466,236H322c-6.616,0-12,5.384-12,12v32c0,6.616,5.384,12,12,12h144c6.616,0,12-5.384,12-12v-32  C478,241.384,472.616,236,466,236z M470,280c0,2.208-1.792,4-4,4H322c-2.208,0-4-1.792-4-4v-32c0-2.208,1.792-4,4-4h144  c2.208,0,4,1.792,4,4V280z" data-original="#000000" class="" data-old_color="#37474F"/><rect x="314" y="324" style="fill:#FFFFFF;" width="160" height="160" data-original="#FFFFFF" class="active-path"/><g>
	<path style="fill:#000000" d="M474,320H314c-2.208,0-4,1.792-4,4v160c0,2.208,1.792,4,4,4h160c2.208,0,4-1.792,4-4V324   C478,321.792,476.208,320,474,320z M470,480H318V328h152V480z" data-original="#000000" class="" data-old_color="#37474F"/>
	<path style="fill:#000000" d="M394,320c-2.208,0-4,1.792-4,4v80c0,2.208,1.792,4,4,4s4-1.792,4-4v-80   C398,321.792,396.208,320,394,320z" data-original="#000000" class="" data-old_color="#37474F"/>
	<path style="fill:#000000" d="M394,400h-80c-2.208,0-4,1.792-4,4s1.792,4,4,4h80c2.208,0,4-1.792,4-4S396.208,400,394,400z" data-original="#000000" class="" data-old_color="#37474F"/>
	<path style="fill:#000000" d="M266,400h-95.44c-2.208,0-4,1.792-4,4s1.792,4,4,4H266c2.208,0,4-1.792,4-4S268.208,400,266,400z" data-original="#000000" class="" data-old_color="#37474F"/>
	<path style="fill:#000000" d="M64.464,395.448C53.072,389.08,46,377.032,46,364v-20c0-2.208-1.792-4-4-4s-4,1.792-4,4v20   c0,15.928,8.648,30.656,22.56,38.432c0.624,0.344,1.288,0.504,1.952,0.504c1.4,0,2.76-0.736,3.496-2.048   C67.08,398.96,66.392,396.52,64.464,395.448z" data-original="#000000" class="" data-old_color="#37474F"/>
	<path style="fill:#000000" d="M42,212c-2.208,0-4,1.792-4,4v96c0,2.208,1.792,4,4,4s4-1.792,4-4v-96C46,213.792,44.208,212,42,212   z" data-original="#000000" class="" data-old_color="#37474F"/>
	<path style="fill:#000000" d="M42,92c-2.208,0-4,1.792-4,4v88c0,2.208,1.792,4,4,4s4-1.792,4-4V96C46,93.784,44.208,92,42,92z" data-original="#000000" class="" data-old_color="#37474F"/>
	<path style="fill:#000000" d="M354,0H82C57.736,0,38,19.736,38,44v20c0,2.208,1.792,4,4,4s4-1.792,4-4V44C46,24.152,62.152,8,82,8   h272c19.848,0,36,16.152,36,36v144c0,2.208,1.792,4,4,4s4-1.792,4-4V44C398,19.736,378.264,0,354,0z" data-original="#000000" class="" data-old_color="#37474F"/>
	<path style="fill:#000000" d="M62,60H22C10.976,60,2,68.976,2,80s8.976,20,20,20h40c11.024,0,20-8.976,20-20S73.024,60,62,60z    M62,92H22c-6.616,0-12-5.384-12-12s5.384-12,12-12h40c6.616,0,12,5.384,12,12S68.616,92,62,92z" data-original="#000000" class="" data-old_color="#37474F"/>
	<path style="fill:#000000" d="M62,180H22c-11.024,0-20,8.976-20,20s8.976,20,20,20h40c11.024,0,20-8.976,20-20S73.024,180,62,180z    M62,212H22c-6.616,0-12-5.384-12-12s5.384-12,12-12h40c6.616,0,12,5.384,12,12S68.616,212,62,212z" data-original="#000000" class="" data-old_color="#37474F"/>
	<path style="fill:#000000" d="M62,308H22c-11.024,0-20,8.976-20,20s8.976,20,20,20h40c11.024,0,20-8.976,20-20S73.024,308,62,308z    M62,340H22c-6.616,0-12-5.384-12-12s5.384-12,12-12h40c6.616,0,12,5.384,12,12S68.616,340,62,340z" data-original="#000000" class="" data-old_color="#37474F"/>
	<path style="fill:#000000" d="M354,340c-2.208,0-4,1.792-4,4v40c0,2.208,1.792,4,4,4s4-1.792,4-4v-40   C358,341.792,356.208,340,354,340z" data-original="#000000" class="" data-old_color="#37474F"/>
	<path style="fill:#000000" d="M374,360h-40c-2.208,0-4,1.792-4,4s1.792,4,4,4h40c2.208,0,4-1.792,4-4S376.208,360,374,360z" data-original="#000000" class="" data-old_color="#37474F"/>
	<path style="fill:#000000" d="M374,440h-40c-2.208,0-4,1.792-4,4s1.792,4,4,4h40c2.208,0,4-1.792,4-4S376.208,440,374,440z" data-original="#000000" class="" data-old_color="#37474F"/>
	<path style="fill:#000000" d="M450.968,347.032c-1.56-1.56-4.096-1.56-5.656,0l-28.28,28.28c-1.56,1.56-1.56,4.096,0,5.656   c0.784,0.784,1.808,1.168,2.832,1.168s2.048-0.392,2.832-1.168l28.28-28.28C452.528,351.128,452.528,348.592,450.968,347.032z" data-original="#000000" class="" data-old_color="#37474F"/>
	<path style="fill:#000000" d="M450.968,375.312l-28.28-28.28c-1.56-1.56-4.096-1.56-5.656,0s-1.56,4.096,0,5.656l28.28,28.28   c0.784,0.784,1.808,1.168,2.832,1.168s2.048-0.392,2.832-1.168C452.528,379.408,452.528,376.872,450.968,375.312z" data-original="#000000" class="" data-old_color="#37474F"/>
	<path style="fill:#000000" d="M474,400h-80c-2.208,0-4,1.792-4,4v80c0,2.208,1.792,4,4,4h80c2.208,0,4-1.792,4-4v-80   C478,401.792,476.208,400,474,400z M470,480h-72v-72h72V480z" data-original="#000000" class="" data-old_color="#37474F"/>
	<path style="fill:#000000" d="M454,452h-40c-2.208,0-4,1.792-4,4s1.792,4,4,4h40c2.208,0,4-1.792,4-4S456.208,452,454,452z" data-original="#000000" class="" data-old_color="#37474F"/>
	<path style="fill:#000000" d="M454,428h-40c-2.208,0-4,1.792-4,4s1.792,4,4,4h40c2.208,0,4-1.792,4-4S456.208,428,454,428z" data-original="#000000" class="" data-old_color="#37474F"/>
</g><path style="fill:#83E1E5" d="M244.76,278.896l-5.656-5.656c-7.808-7.808-20.472-7.808-28.288,0L55.256,428.8L89.2,462.744  l155.56-155.56C252.568,299.368,252.568,286.704,244.76,278.896z" data-original="#83E1E5" class="" data-old_color="#64B5F6"/><g>
	<path style="fill:#000000" d="M247.584,276.072l-5.656-5.656c-9.064-9.072-24.872-9.072-33.944,0l-155.56,155.56   c-1.56,1.56-1.56,4.096,0,5.656l33.944,33.944c0.752,0.752,1.768,1.168,2.832,1.168s2.08-0.424,2.832-1.168l155.56-155.568   c4.536-4.528,7.032-10.56,7.032-16.968S252.12,280.6,247.584,276.072z M241.928,304.352L89.192,457.088L60.904,428.8   L213.64,276.064c6.048-6.048,16.584-6.048,22.632,0l5.656,5.656c3.024,3.024,4.688,7.04,4.688,11.312   S244.952,301.328,241.928,304.352z" data-original="#000000" class="" data-old_color="#37474F"/>
	<path style="fill:#000000" d="M92.024,459.92L58.08,425.976c-1.56-1.56-4.096-1.56-5.656,0l-28.288,28.288   c-0.44,0.44-0.768,0.976-0.968,1.56L6.2,506.736c-0.48,1.44-0.104,3.024,0.968,4.096C7.936,511.592,8.96,512,10,512   c0.424,0,0.848-0.064,1.264-0.208l50.912-16.976c0.592-0.192,1.128-0.528,1.56-0.968l28.288-28.28   c0.752-0.752,1.168-1.768,1.168-2.832S92.776,460.664,92.024,459.92z M58.752,487.528l-42.424,14.144l14.144-42.424l24.792-24.792   l28.288,28.288L58.752,487.528z" data-original="#000000" class="" data-old_color="#37474F"/>
	<path style="fill:#000000" d="M46.768,493.856l-22.632-22.632c-0.976-0.984-2.4-1.376-3.744-1.064   c-1.352,0.32-2.44,1.32-2.872,2.632L6.208,506.736c-0.48,1.44-0.104,3.024,0.968,4.096C7.936,511.592,8.96,512,10,512   c0.424,0,0.848-0.064,1.264-0.208l33.944-11.312c1.312-0.44,2.312-1.52,2.632-2.872C48.152,496.256,47.752,494.84,46.768,493.856z    M16.328,501.672l6.736-20.208l13.472,13.472L16.328,501.672z" data-original="#000000" class="" data-old_color="#37474F"/>
	<path style="fill:#000000" d="M188.192,273.24c-1.56-1.56-4.096-1.56-5.656,0l-56.568,56.568c-1.56,1.56-1.56,4.096,0,5.656   c0.784,0.784,1.808,1.168,2.832,1.168c1.024,0,2.048-0.392,2.832-1.168l56.568-56.568   C189.752,277.336,189.752,274.808,188.192,273.24z" data-original="#000000" class="" data-old_color="#37474F"/>
	<path style="fill:#000000" d="M346,120h-68c-2.208,0-4,1.792-4,4s1.792,4,4,4h68c2.208,0,4-1.792,4-4S348.208,120,346,120z" data-original="#000000" class="" data-old_color="#37474F"/>
	<path style="fill:#000000" d="M346,144h-68c-2.208,0-4,1.792-4,4s1.792,4,4,4h68c2.208,0,4-1.792,4-4S348.208,144,346,144z" data-original="#000000" class="" data-old_color="#37474F"/>
</g><polygon style="fill:#83E1E5" points="174,64 118,96 118,160 174,192 230,160 230,96 " data-original="#83E1E5" class="" data-old_color="#EF5350"/><g>
	<path style="fill:#000000" d="M231.984,92.528l-56-32c-1.224-0.704-2.744-0.704-3.968,0l-56,32C114.768,93.24,114,94.568,114,96   v64c0,1.432,0.768,2.76,2.016,3.472l56,32C172.632,195.824,173.32,196,174,196s1.368-0.176,1.984-0.528l56-32   c1.248-0.712,2.016-2.04,2.016-3.472V96C234,94.568,233.232,93.24,231.984,92.528z M226,157.68l-52,29.712l-52-29.712V98.32   l52-29.712l52,29.712V157.68z" data-original="#000000" class="" data-old_color="#37474F"/>
	<path style="fill:#000000" d="M174,124c-2.208,0-4,1.792-4,4v64c0,2.208,1.792,4,4,4s4-1.792,4-4v-64   C178,125.792,176.208,124,174,124z" data-original="#000000" class="" data-old_color="#37474F"/>
	<path style="fill:#000000" d="M233.472,94.016c-1.096-1.92-3.552-2.6-5.456-1.488L174,123.392l-54.016-30.864   c-1.928-1.112-4.36-0.432-5.456,1.488s-0.432,4.36,1.488,5.456l56,32C172.632,131.824,173.32,132,174,132s1.368-0.176,1.984-0.528   l56-32C233.904,98.376,234.568,95.936,233.472,94.016z" data-original="#000000" class="" data-old_color="#37474F"/>
</g></g></g></g> </svg>
