<?xml version="1.0" encoding="utf-8"?>
<!-- Generator: Adobe Illustrator 19.0.0, SVG Export Plug-In . SVG Version: 6.00 Build 0)  -->
<svg version="1.1" id="Layer_1" xmlns="http://www.w3.org/2000/svg" xmlns:xlink="http://www.w3.org/1999/xlink" x="0px" y="0px"
	 viewBox="-217.2 228 40.6 46" style="enable-background:new -217.2 228 40.6 46;" xml:space="preserve">
<style type="text/css">
	.st0{fill:#145885;}
	.st1{fill:#DDEEFF;}
</style>
<path class="st0" d="M-210.4,261.6l6.7-6.7h21.4c1,0,1.9-0.4,2.7-1.1c0.7-0.7,1.1-1.7,1.1-2.7v-16.9c0-1-0.4-1.9-1.1-2.7
	c-0.7-0.7-1.7-1.1-2.7-1.1h-24.4c-1,0-1.9,0.4-2.7,1.1c-0.7,0.7-1.1,1.7-1.1,2.7V261.6z M-210.4,264.2h-1.9v-30c0-1.5,0.6-2.9,1.6-4
	c1.1-1.1,2.5-1.6,4-1.6h24.4c1.5,0,2.9,0.6,4,1.6c1.1,1.1,1.6,2.5,1.6,4v16.9c0,1.5-0.6,2.9-1.6,4c-1.1,1.1-2.5,1.6-4,1.6h-20.6
	L-210.4,264.2z M-204.8,236.1h20.6v1.9h-20.6V236.1z M-204.8,241.8h20.6v1.9h-20.6V241.8z M-204.8,247.4h15v1.9h-15V247.4z"/>
<path class="st1" d="M-205.9,259.5l-14.2,11.8l-0.1-23.4L-205.9,259.5z"/>
<rect x="-217" y="235" class="st1" width="34" height="25"/>
<path class="st0" d="M-215.4,266.6l6.7-6.7h21.4c1,0,1.9-0.4,2.7-1.1c0.7-0.7,1.1-1.7,1.1-2.7v-16.9c0-1-0.4-1.9-1.1-2.7
	c-0.7-0.7-1.7-1.1-2.7-1.1h-24.4c-1,0-1.9,0.4-2.7,1.1c-0.7,0.7-1.1,1.7-1.1,2.7V266.6z M-215.4,269.2h-1.9v-30c0-1.5,0.6-2.9,1.6-4
	c1.1-1.1,2.5-1.6,4-1.6h24.4c1.5,0,2.9,0.6,4,1.6c1.1,1.1,1.6,2.5,1.6,4v16.9c0,1.5-0.6,2.9-1.6,4c-1.1,1.1-2.5,1.6-4,1.6h-20.6
	L-215.4,269.2z M-209.8,241.1h20.6v1.9h-20.6V241.1z M-209.8,246.8h20.6v1.9h-20.6V246.8z M-209.8,252.4h15v1.9h-15V252.4z"/>
</svg>
